<?xml version="1.0" standalone="no"?>
<!DOCTYPE svg PUBLIC "-//W3C//DTD SVG 20010904//EN"
 "http://www.w3.org/TR/2001/REC-SVG-20010904/DTD/svg10.dtd">
<svg version="1.0" xmlns="http://www.w3.org/2000/svg"
 width="640.000000pt" height="640.000000pt" viewBox="0 0 640.000000 640.000000"
 preserveAspectRatio="xMidYMid meet">
<metadata>
Created by potrace 1.14, written by Peter Selinger 2001-2017
</metadata>
<g transform="translate(0.000000,640.000000) scale(0.100000,-0.100000)"
fill="#000000" stroke="none">
<path d="M3359 5893 c-1 -5 -1 -12 1 -18 1 -6 -3 -5 -10 1 -16 16 -58 5 -65
-17 -6 -17 -24 -23 -62 -22 -7 1 -13 -6 -13 -13 0 -12 -4 -12 -20 -4 -15 8
-20 8 -20 -1 0 -6 -6 -9 -14 -6 -10 4 -12 -1 -9 -16 5 -18 3 -20 -7 -10 -15
14 -33 0 -44 -35 -4 -12 -14 -22 -22 -22 -8 0 -14 -7 -14 -15 0 -9 -7 -15 -16
-13 -10 2 -19 -3 -22 -11 -3 -8 0 -11 7 -7 6 4 11 3 11 -2 0 -4 -16 -14 -35
-22 -19 -7 -33 -16 -30 -18 2 -3 -5 -18 -16 -34 -28 -38 -40 -196 -30 -373 4
-71 4 -135 -1 -141 -4 -6 -2 -16 4 -22 9 -9 9 -17 0 -34 -18 -35 -22 -406 -5
-423 15 -16 17 -29 3 -20 -5 3 -11 -4 -11 -17 -2 -42 -15 -78 -28 -78 -12 0
-10 33 3 49 8 11 8 13 0 8 -18 -10 -23 25 -29 189 -3 82 -11 162 -17 178 -9
23 -9 31 0 34 9 3 8 9 -2 24 -10 14 -12 28 -6 43 5 13 7 25 4 28 -3 2 -7 33
-9 68 -11 169 -27 311 -38 339 -3 8 -8 32 -12 53 -4 24 -11 37 -22 37 -9 0
-13 6 -10 14 10 25 -16 98 -44 127 -17 17 -26 35 -23 44 4 8 1 15 -5 15 -6 0
-11 -7 -11 -15 0 -8 -4 -15 -10 -15 -5 0 -10 7 -10 15 0 8 -4 15 -9 15 -5 0
-13 10 -16 21 -5 16 -9 18 -15 9 -6 -10 -15 -10 -37 -3 -16 6 -51 9 -78 7 -29
-2 -44 1 -36 5 24 15 1 32 -40 29 -22 -1 -43 -6 -46 -10 -2 -5 -11 -4 -19 3
-10 8 -14 8 -14 0 0 -6 -9 -11 -20 -11 -11 0 -20 -4 -20 -8 0 -17 -51 -33 -66
-21 -7 6 -18 8 -24 4 -5 -3 -13 1 -16 9 -3 9 -10 13 -16 10 -5 -3 -7 -12 -4
-19 3 -9 -2 -12 -15 -10 -11 2 -24 -4 -31 -15 -12 -18 -13 -18 -31 -2 -18 16
-18 15 -11 -12 5 -21 4 -27 -5 -22 -7 5 -11 -1 -11 -14 0 -16 -4 -20 -16 -16
-9 4 -23 1 -32 -6 -12 -11 -16 -10 -20 1 -3 10 -10 8 -23 -10 -17 -22 -19 -23
-20 -4 -1 18 -2 17 -7 -3 -4 -13 -11 -24 -17 -25 -5 -1 -19 -12 -32 -24 -12
-13 -28 -23 -36 -23 -8 0 -23 -11 -33 -25 -10 -14 -26 -25 -35 -25 -11 0 -19
-12 -23 -35 -4 -20 -11 -33 -15 -30 -5 2 -14 -9 -21 -25 -7 -17 -17 -30 -22
-30 -17 0 -39 -29 -36 -47 2 -10 -2 -17 -10 -15 -16 3 -15 -8 3 -32 8 -11 15
-27 15 -35 0 -11 -4 -10 -15 5 -13 18 -14 18 -15 1 0 -10 10 -31 22 -47 18
-25 20 -32 8 -43 -10 -10 -11 -9 -6 1 5 7 -2 20 -16 32 -32 27 -42 25 -22 -5
19 -30 12 -44 -12 -24 -15 12 -16 11 -10 -9 8 -25 -11 -32 -20 -7 -4 8 -10 15
-15 15 -5 0 0 -19 12 -42 l21 -43 -25 28 c-27 30 -42 35 -33 12 4 -12 2 -13
-13 -5 -11 5 -22 15 -24 22 -3 7 -6 2 -7 -12 l-2 -25 -9 25 c-5 15 -22 31 -39
37 -29 11 -44 1 -17 -11 6 -3 2 -3 -10 0 -17 4 -23 1 -23 -11 0 -9 4 -14 9
-11 5 3 14 -1 21 -9 11 -13 8 -15 -17 -15 -16 0 -37 -6 -48 -14 -11 -7 -23
-13 -27 -12 -3 0 -10 -2 -14 -6 -4 -5 -1 -8 7 -9 8 0 5 -4 -6 -8 -12 -5 -23
-4 -28 3 -6 7 -7 4 -3 -6 3 -10 -2 -24 -10 -33 -9 -8 -11 -15 -5 -15 6 0 11
-4 11 -10 0 -5 -8 -10 -18 -10 -10 0 -21 -3 -25 -6 -8 -9 18 -34 36 -34 25 0
28 -28 5 -36 -20 -6 -19 -10 25 -50 52 -47 55 -54 30 -54 -16 -1 -16 -2 -2
-13 8 -7 18 -20 22 -29 4 -12 -5 -9 -36 12 -45 31 -67 30 -29 -1 l24 -19 -27
-10 c-36 -14 -45 -13 -69 7 -12 10 -8 3 9 -15 16 -18 31 -28 33 -22 5 13 32
13 32 0 0 -5 -7 -10 -15 -10 -8 0 -15 -5 -15 -11 0 -6 -16 1 -35 15 -49 38
-44 25 12 -27 41 -39 45 -47 34 -61 -12 -14 -17 -13 -49 14 -66 54 -56 31 17
-40 40 -38 70 -70 67 -70 -10 0 -82 54 -86 65 -2 6 -14 18 -26 27 -20 16 -23
16 -28 2 -9 -23 -7 -36 4 -29 18 11 11 -15 -10 -38 -18 -19 -22 -20 -31 -7 -8
12 -9 10 -4 -6 5 -18 2 -21 -18 -19 -14 2 -28 -5 -35 -16 -8 -12 -8 -19 -2
-19 5 0 10 -4 10 -10 0 -5 -5 -10 -11 -10 -19 0 -40 -29 -46 -65 -3 -19 -10
-35 -14 -35 -5 0 -9 -4 -9 -10 0 -5 7 -7 15 -4 10 4 13 2 10 -8 -4 -9 4 -19
20 -26 31 -14 33 -32 3 -33 -20 -1 -18 -3 10 -15 17 -8 32 -19 32 -24 0 -15
-36 -12 -50 5 -7 8 -20 15 -29 15 -10 0 -2 -13 24 -36 33 -30 36 -35 17 -31
-15 4 -22 1 -19 -6 2 -7 13 -12 25 -11 14 0 18 -4 14 -14 -3 -9 -1 -13 5 -9
12 7 73 -14 73 -25 0 -4 -12 -3 -26 2 -14 6 -36 10 -49 10 -13 0 -25 6 -28 13
-3 8 -7 6 -12 -7 -9 -20 10 -37 31 -29 6 2 15 -1 19 -8 6 -9 -1 -10 -29 -5
-35 7 -36 6 -24 -13 7 -12 19 -21 26 -21 7 0 10 -5 6 -11 -4 -8 -9 -8 -17 0
-14 14 -27 14 -27 1 0 -5 12 -16 26 -23 15 -8 22 -17 16 -21 -5 -3 -8 -15 -5
-26 4 -16 0 -20 -22 -20 -28 0 -32 -24 -4 -26 32 -3 33 -5 19 -14 -12 -8 -9
-12 18 -22 17 -7 32 -15 32 -19 0 -16 54 -40 122 -54 86 -18 91 -18 83 -5 -3
6 1 10 10 10 11 0 15 -5 11 -16 -3 -8 -2 -12 4 -9 5 3 37 1 71 -5 34 -6 84
-13 113 -14 71 -5 178 -16 287 -32 26 -3 55 -2 64 4 13 7 29 5 54 -5 34 -15
83 -25 129 -27 12 -1 22 -5 22 -10 0 -5 20 -6 45 -3 35 5 47 3 51 -8 4 -8 16
-15 28 -15 23 0 147 -57 157 -73 4 -5 17 -11 30 -12 38 -4 39 -4 39 -18 0 -7
18 -24 40 -37 22 -14 40 -29 40 -34 0 -4 7 -6 15 -3 8 4 17 2 20 -4 4 -5 10
-7 15 -4 4 3 16 2 27 -2 17 -7 16 -8 -4 -13 l-21 -5 24 -18 c22 -16 23 -16 17
-1 -5 12 -3 15 6 9 10 -6 11 -3 2 13 -6 12 -16 24 -21 27 -6 4 -8 11 -5 16 8
12 32 -12 44 -43 6 -16 4 -31 -7 -50 -15 -26 -15 -28 9 -50 24 -22 85 -117
121 -186 21 -43 36 -125 37 -214 1 -27 5 -38 16 -38 17 0 20 -17 5 -22 -6 -2
-13 -36 -15 -76 -2 -43 0 -70 6 -67 5 4 9 -11 9 -32 0 -25 -3 -33 -9 -25 -6
10 -10 8 -14 -10 -12 -44 -8 -88 8 -88 9 0 15 -9 15 -24 0 -14 5 -28 10 -31 6
-4 10 7 10 24 0 17 5 31 10 31 6 0 10 5 10 11 0 5 -4 7 -10 4 -5 -3 -10 3 -10
14 0 12 -5 20 -11 19 -6 -2 -14 3 -16 10 -4 9 2 11 20 7 l26 -7 -4 71 c-2 41
1 74 7 77 6 4 5 10 -3 16 -11 7 -11 11 -1 15 6 2 12 19 12 36 0 25 3 29 10 17
8 -11 9 -8 4 13 -4 17 0 43 9 65 9 20 21 61 27 90 7 29 18 59 26 67 8 7 11 22
8 32 -4 13 -3 15 4 5 11 -17 42 22 72 91 14 32 28 47 46 51 19 5 25 12 21 26
-3 12 0 17 9 13 7 -2 58 30 113 71 90 69 301 186 333 186 7 0 28 9 47 21 22
13 42 18 58 14 14 -3 31 -1 37 4 17 14 270 18 421 7 261 -19 415 -24 421 -14
3 5 18 7 32 4 16 -4 39 0 56 9 15 8 34 15 42 15 7 0 16 5 20 11 3 6 -1 10 -12
9 -42 -5 -46 3 -5 9 57 8 68 31 15 31 -50 0 -40 8 16 13 25 2 54 9 65 14 11 6
25 12 30 13 15 3 20 10 7 10 -7 0 -12 5 -12 11 0 5 5 7 10 4 6 -3 13 2 17 11
6 16 7 16 13 -1 6 -17 7 -17 13 4 5 21 3 22 -21 16 -47 -12 -66 -15 -117 -20
-45 -4 -47 -3 -17 6 17 5 32 16 32 24 0 8 5 15 10 15 6 0 9 -6 8 -12 -6 -27
102 5 124 37 12 16 3 16 -35 0 -43 -18 -57 -19 -57 -4 0 5 4 8 8 5 5 -3 23 4
42 15 20 12 29 23 22 27 -6 4 -13 21 -17 37 l-6 30 15 -25 c17 -28 22 -19 6
11 -6 10 -18 19 -28 19 -15 0 -15 2 -2 10 11 7 11 10 2 10 -17 0 -55 -20 -64
-34 -5 -8 -8 -7 -8 2 0 6 -7 12 -16 12 -9 0 -12 -5 -8 -12 4 -6 3 -9 -2 -5 -5
3 -36 -1 -69 -8 -128 -30 -40 4 159 62 13 4 15 7 7 13 -7 4 -38 -1 -69 -11
-108 -34 -140 -41 -153 -37 -7 2 21 15 62 28 41 13 81 27 89 31 8 4 41 19 74
34 32 14 56 28 53 31 -4 4 -53 -14 -99 -37 -28 -14 -45 -10 -19 5 31 17 11 29
-25 16 -17 -7 -30 -7 -33 -1 -3 5 -17 11 -29 12 -17 3 10 17 88 49 61 24 113
47 116 51 5 9 -74 -9 -103 -24 -35 -16 -39 0 -4 18 17 8 31 13 31 10 0 -3 14
1 30 10 39 20 38 28 -2 21 -26 -5 -21 0 25 23 32 16 54 32 49 35 -6 3 -23 -1
-38 -9 -16 -8 -35 -15 -42 -15 -7 0 -35 -12 -63 -26 -28 -14 -48 -20 -44 -14
4 6 38 25 76 42 38 18 69 36 69 40 0 11 -18 10 -25 -2 -3 -5 -16 -10 -28 -10
l-22 1 24 19 c13 11 29 20 36 20 7 0 18 6 24 14 11 13 7 13 -26 4 -21 -6 -56
-18 -78 -29 -59 -26 -163 -69 -170 -69 -4 0 -3 5 0 10 3 6 12 10 20 10 7 0 42
13 77 29 35 16 73 32 86 36 24 7 29 20 10 29 -7 3 -1 3 13 0 15 -3 30 -1 33 4
11 18 -23 21 -61 7 -22 -8 -30 -14 -19 -14 11 -1 17 -3 14 -6 -3 -4 -18 -3
-32 1 -26 6 -26 7 -8 20 10 7 30 16 45 19 14 4 31 13 38 21 18 22 -16 29 -46
10 -13 -9 -26 -12 -30 -7 -3 5 8 15 25 23 32 14 40 28 15 28 -17 0 -20 35 -4
46 8 4 7 9 -2 15 -11 6 -11 11 -1 21 14 14 16 42 2 33 -5 -3 -10 1 -10 9 0 9
6 16 13 16 7 1 4 7 -7 15 -13 10 -17 23 -14 44 3 22 0 31 -9 31 -10 0 -12 7
-8 20 4 14 2 20 -7 18 -7 -2 -12 3 -10 10 1 6 -5 12 -13 12 -8 0 -17 11 -21
25 -3 14 -10 25 -15 25 -5 0 -9 7 -9 15 0 9 -9 15 -25 15 -14 0 -25 -4 -25
-10 0 -5 -4 -10 -10 -10 -6 0 -6 9 0 26 9 23 8 25 -10 19 -15 -5 -18 -3 -14 9
8 21 -14 20 -39 -1 -19 -18 -20 -17 -8 5 7 13 9 31 6 40 -6 15 -8 15 -15 -3
-9 -19 -9 -19 -16 3 -9 29 -17 28 -48 -9 -33 -39 -34 -29 -1 19 13 20 21 39
17 42 -15 10 -9 48 8 44 8 -2 3 2 -12 9 -24 11 -26 15 -13 28 12 12 13 21 3
54 -7 22 -18 44 -25 48 -7 4 -13 15 -13 22 0 8 -4 15 -10 15 -5 0 -10 8 -11
18 0 10 -3 12 -6 5 -6 -17 -23 -17 -23 0 0 8 -12 19 -26 25 -14 7 -22 17 -19
22 3 6 -1 10 -9 10 -9 0 -16 9 -16 20 0 11 -7 20 -15 20 -8 0 -15 7 -15 15 0
8 -6 15 -14 15 -8 0 -17 12 -20 26 -5 19 -11 24 -26 19 -15 -5 -17 -2 -13 16
4 15 2 20 -8 17 -7 -2 -26 9 -41 24 -18 19 -35 27 -46 24 -19 -6 -52 38 -52
70 0 16 -1 16 -20 -1 -16 -15 -20 -15 -20 -3 0 18 -29 53 -50 60 -8 3 -25 1
-37 -3 -17 -6 -23 -5 -23 6 0 9 -6 12 -15 9 -10 -4 -18 2 -24 17 l-9 24 -7
-27 c-4 -15 -4 -32 1 -39 4 -7 3 -10 -3 -6 -14 9 -23 46 -12 52 4 3 5 13 2 21
-5 13 -7 13 -14 2 -6 -10 -11 -9 -23 7 -13 17 -15 18 -16 3 0 -9 -4 -20 -10
-23 -5 -3 -7 0 -4 8 3 8 -2 17 -11 21 -9 3 -13 2 -10 -4 3 -6 -1 -10 -9 -10
-8 0 -20 -9 -26 -20 -12 -23 -30 -27 -30 -6 0 7 -10 16 -22 20 -20 5 -21 8 -8
17 12 8 10 9 -7 4 -13 -3 -23 -2 -23 3 0 5 -15 13 -32 19 -27 7 -33 14 -30 34
1 14 -1 19 -6 12 -5 -8 -12 -8 -26 3 -11 8 -14 14 -7 14 7 0 10 4 6 10 -3 5
-12 7 -20 3 -9 -3 -15 1 -15 9 0 7 -10 15 -22 15 -13 1 -33 5 -45 8 -16 4 -23
1 -23 -10 0 -8 -4 -15 -10 -15 -5 0 -10 7 -10 15 0 15 -19 22 -21 8z m1 -57
c0 -3 -4 -8 -10 -11 -5 -3 -10 -1 -10 4 0 6 5 11 10 11 6 0 10 -2 10 -4z m-5
-36 c3 -5 1 -10 -4 -10 -6 0 -11 5 -11 10 0 6 2 10 4 10 3 0 8 -4 11 -10z
m-165 -51 c0 -5 -4 -9 -10 -9 -5 0 -10 7 -10 16 0 8 5 12 10 9 6 -3 10 -10 10
-16z m-100 -43 c0 -3 -4 -8 -10 -11 -5 -3 -10 -1 -10 4 0 6 5 11 10 11 6 0 10
-2 10 -4z m144 -25 c7 -10 -3 -41 -13 -41 -3 0 -6 11 -6 25 0 25 9 33 19 16z
m45 -133 c-1 -31 -1 -31 -8 -8 -5 14 -6 28 -4 33 9 15 13 6 12 -25z m-891 -73
c-3 -3 -9 2 -12 12 -6 14 -5 15 5 6 7 -7 10 -15 7 -18z m36 -112 c2 -15 1 -22
-1 -15 -3 7 -9 10 -14 7 -5 -3 -6 0 -3 8 3 8 1 18 -5 22 -6 3 -11 13 -11 21 0
27 30 -11 34 -43z m103 25 c-3 -8 -6 -5 -6 6 -1 11 2 17 5 13 3 -3 4 -12 1
-19z m228 2 c3 -5 1 -10 -4 -10 -6 0 -11 5 -11 10 0 6 2 10 4 10 3 0 8 -4 11
-10z m419 -109 c8 -12 -4 -41 -16 -41 -7 0 -6 5 1 13 15 19 1 30 -18 14 -14
-11 -14 -10 -2 6 15 19 27 22 35 8z m-427 -23 c-3 -8 -6 -5 -6 6 -1 11 2 17 5
13 3 -3 4 -12 1 -19z m-1019 -34 c-4 -3 -12 5 -18 18 -12 22 -12 22 6 6 10
-10 15 -20 12 -24z m1254 -151 c-4 -62 -15 -82 -25 -43 -3 11 -1 20 5 20 10 0
3 134 -8 152 -3 5 0 16 8 25 11 14 14 9 18 -38 3 -30 3 -82 2 -116z m39 102
c5 4 8 -18 7 -52 l-2 -58 -3 50 c-3 35 -7 45 -13 35 -7 -10 -9 3 -8 40 1 43 2
47 5 17 2 -20 8 -35 14 -32z m-384 33 c-3 -8 -6 -5 -6 6 -1 11 2 17 5 13 3 -3
4 -12 1 -19z m129 -5 c-10 -10 -19 5 -10 18 6 11 8 11 12 0 2 -7 1 -15 -2 -18z
m-79 -5 c-3 -8 -6 -5 -6 6 -1 11 2 17 5 13 3 -3 4 -12 1 -19z m443 7 c0 -8 -4
-15 -10 -15 -5 0 -7 7 -4 15 4 8 8 15 10 15 2 0 4 -7 4 -15z m-400 -16 c0 -6
-4 -7 -10 -4 -5 3 -10 11 -10 16 0 6 5 7 10 4 6 -3 10 -11 10 -16z m717 2 c1
-11 -5 -22 -13 -25 -15 -6 -18 3 -8 28 8 22 19 20 21 -3z m68 -3 c-17 -4 -37
-5 -45 -1 -10 4 -3 9 20 13 45 8 64 -1 25 -12z m-1455 2 c0 -5 -4 -10 -10 -10
-5 0 -10 5 -10 10 0 6 5 10 10 10 6 0 10 -4 10 -10z m1006 -68 c-13 -12 -18 9
-10 45 l8 38 4 -39 c2 -21 1 -41 -2 -44z m535 56 c11 -21 11 -22 -4 -9 -10 7
-17 17 -17 22 0 15 9 10 21 -13z m-1876 -8 c10 -11 13 -20 7 -20 -6 0 -16 9
-22 20 -6 11 -9 20 -7 20 2 0 12 -9 22 -20z m55 -24 c0 -6 -7 -1 -15 10 -8 10
-15 23 -15 28 0 6 7 1 15 -10 8 -10 15 -23 15 -28z m990 28 c0 -8 -4 -12 -10
-9 -5 3 -10 10 -10 16 0 5 5 9 10 9 6 0 10 -7 10 -16z m-240 -9 c-7 -9 -15
-13 -19 -10 -3 3 1 10 9 15 21 14 24 12 10 -5z m-880 -5 c0 -5 -4 -10 -10 -10
-5 0 -10 5 -10 10 0 6 5 10 10 10 6 0 10 -4 10 -10z m997 -37 c-3 -10 -5 -4
-5 12 0 17 2 24 5 18 2 -7 2 -21 0 -30z m893 23 c0 -8 -9 -12 -22 -11 -30 3
-30 3 -23 15 9 15 45 12 45 -4z m-2130 -21 c-7 -8 -17 -15 -22 -15 -11 0 14
29 26 30 5 0 3 -7 -4 -15z m200 -31 c35 -53 34 -73 -1 -22 -13 18 -27 35 -31
36 -8 4 -11 32 -4 32 3 0 19 -21 36 -46z m58 21 c-3 -3 -9 2 -12 12 -6 14 -5
15 5 6 7 -7 10 -15 7 -18z m85 11 c4 -10 1 -13 -8 -9 -8 3 -12 9 -9 14 7 12
11 11 17 -5z m1474 -18 c-3 -7 -5 -2 -5 12 0 14 2 19 5 13 2 -7 2 -19 0 -25z
m-454 7 c-3 -9 -8 -14 -10 -11 -3 3 -2 9 2 15 9 16 15 13 8 -4z m349 -12 c-3
-16 -7 -22 -10 -15 -4 13 4 42 11 42 2 0 2 -12 -1 -27z m-1401 0 c13 -16 12
-17 -3 -4 -10 7 -18 15 -18 17 0 8 8 3 21 -13z m976 -5 c-3 -8 -6 -5 -6 6 -1
11 2 17 5 13 3 -3 4 -12 1 -19z m463 -11 c0 -5 -4 -5 -10 -2 -5 3 -10 14 -10
23 0 15 2 15 10 2 5 -8 10 -19 10 -23z m27 11 c-3 -8 -6 -5 -6 6 -1 11 2 17 5
13 3 -3 4 -12 1 -19z m-1542 2 c3 -5 1 -10 -4 -10 -6 0 -11 5 -11 10 0 6 2 10
4 10 3 0 8 -4 11 -10z m1362 -42 c-2 -13 -4 -5 -4 17 -1 22 1 32 4 23 2 -10 2
-28 0 -40z m56 32 c3 -11 1 -23 -4 -26 -5 -3 -9 6 -9 20 0 31 6 34 13 6z m589
-2 c-7 -7 -12 -8 -12 -2 0 6 3 14 7 17 3 4 9 5 12 2 2 -3 -1 -11 -7 -17z
m-2142 8 c0 -3 -4 -8 -10 -11 -5 -3 -10 -1 -10 4 0 6 5 11 10 11 6 0 10 -2 10
-4z m70 -21 c13 -14 20 -25 15 -25 -4 0 -18 11 -31 25 -13 14 -20 25 -15 25 4
0 18 -11 31 -25z m1094 -7 c11 -42 5 -53 -9 -19 -18 39 -18 41 -6 41 5 0 11
-10 15 -22z m103 -18 c-3 -22 -1 -42 4 -45 11 -8 8 -135 -3 -135 -6 0 -8 25
-5 60 3 33 2 62 -3 65 -6 3 -8 25 -6 48 5 49 4 47 12 47 4 0 4 -18 1 -40z
m-65 -5 c2 -19 0 -35 -4 -35 -4 0 -8 16 -8 35 0 19 2 35 4 35 2 0 6 -16 8 -35z
m398 5 c0 -11 -4 -20 -9 -20 -5 0 -7 9 -4 20 3 11 7 20 9 20 2 0 4 -9 4 -20z
m1350 14 c0 -3 -7 -12 -15 -20 -16 -17 -18 -14 -9 10 6 15 24 23 24 10z
m-2013 -26 c-3 -8 -6 -5 -6 6 -1 11 2 17 5 13 3 -3 4 -12 1 -19z m372 -16 c0
-24 -1 -25 -9 -7 -12 28 -12 47 0 40 6 -3 10 -18 9 -33z m-82 6 c-3 -8 -6 -5
-6 6 -1 11 2 17 5 13 3 -3 4 -12 1 -19z m333 2 c0 -17 -2 -19 -14 -8 -14 13
-12 28 5 28 5 0 9 -9 9 -20z m-1180 -55 c0 -5 -9 4 -20 20 -11 17 -20 35 -20
40 0 6 9 -3 20 -20 11 -16 20 -34 20 -40z m1251 18 c-9 -16 -10 -15 -11 8 0
14 3 29 8 33 12 12 14 -22 3 -41z m-1490 -16 l33 -42 -42 40 c-23 21 -42 43
-42 48 0 14 17 -1 51 -46z m94 43 c3 -5 1 -10 -4 -10 -6 0 -11 5 -11 10 0 6 2
10 4 10 3 0 8 -4 11 -10z m1850 -22 c-5 -25 -4 -29 4 -18 10 13 11 13 11 0 -1
-28 -28 -52 -64 -55 -20 -2 -38 0 -41 5 -3 5 -11 7 -18 4 -14 -5 -67 38 -67
55 0 7 9 7 27 0 25 -9 42 0 43 24 0 4 5 7 11 7 11 0 9 -16 -5 -51 -5 -10 -2
-16 8 -16 8 0 13 4 10 9 -3 4 0 8 7 8 6 0 9 8 6 20 -6 24 2 26 18 3 11 -15 14
-14 30 10 23 35 28 34 20 -5z m-1924 5 c13 -16 12 -17 -3 -4 -17 13 -22 21
-14 21 2 0 10 -8 17 -17z m1616 -15 c-3 -7 -5 -2 -5 12 0 14 2 19 5 13 2 -7 2
-19 0 -25z m-27 18 c0 -3 -4 -8 -10 -11 -5 -3 -10 -1 -10 4 0 6 5 11 10 11 6
0 10 -2 10 -4z m-1490 -26 c6 -11 8 -20 6 -20 -3 0 -10 9 -16 20 -6 11 -8 20
-6 20 3 0 10 -9 16 -20z m917 -2 c-3 -8 -6 -5 -6 6 -1 11 2 17 5 13 3 -3 4
-12 1 -19z m-217 -15 c0 -21 -3 -24 -9 -14 -5 8 -7 20 -4 28 8 21 13 15 13
-14z m597 5 c-3 -8 -6 -5 -6 6 -1 11 2 17 5 13 3 -3 4 -12 1 -19z m-91 -38 c1
-22 -3 -40 -8 -40 -6 0 -8 16 -6 35 2 19 0 35 -5 35 -4 0 -5 5 -2 11 11 17 19
1 21 -41z m124 46 c0 -3 -4 -8 -10 -11 -5 -3 -10 -1 -10 4 0 6 5 11 10 11 6 0
10 -2 10 -4z m-451 -39 c0 -21 -1 -21 -9 -2 -12 28 -12 37 0 30 6 -3 10 -16 9
-28z m601 1 c0 -26 -9 -19 -15 11 -2 12 0 19 6 16 5 -4 9 -16 9 -27z m-233
-10 c-3 -7 -5 -2 -5 12 0 14 2 19 5 13 2 -7 2 -19 0 -25z m-1667 7 c7 -9 10
-18 6 -22 -3 -3 -6 -1 -6 5 0 7 -7 12 -15 12 -8 0 -15 5 -15 10 0 15 16 12 30
-5z m1750 -10 c0 -8 -4 -17 -10 -20 -6 -4 -10 5 -10 20 0 15 4 24 10 20 6 -3
10 -12 10 -20z m80 -1 c0 -8 -5 -14 -11 -14 -7 0 -9 -9 -6 -22 3 -11 1 -44 -5
-72 -5 -28 -10 -59 -10 -68 1 -10 -4 -18 -10 -18 -6 0 -8 12 -4 33 4 17 7 44
7 60 0 15 5 27 11 27 6 0 8 9 5 21 -8 28 3 80 14 73 5 -3 9 -12 9 -20z m-1765
6 c3 -6 -1 -7 -9 -4 -18 7 -21 14 -7 14 6 0 13 -4 16 -10z m1180 0 c3 -5 1
-10 -4 -10 -6 0 -11 5 -11 10 0 6 2 10 4 10 3 0 8 -4 11 -10z m452 -12 c-3 -8
-6 -5 -6 6 -1 11 2 17 5 13 3 -3 4 -12 1 -19z m-297 -80 c0 -20 -5 -40 -10
-43 -6 -4 -10 5 -9 22 1 15 -1 48 -4 73 -7 45 -7 45 8 15 8 -16 14 -47 15 -67z
m-1035 55 l18 -28 -21 19 c-12 11 -22 23 -22 28 0 14 7 9 25 -19z m-45 2 c11
-13 10 -14 -4 -9 -9 3 -16 10 -16 15 0 13 6 11 20 -6z m861 -8 c-10 -9 -11 -8
-5 6 3 10 9 15 12 12 3 -3 0 -11 -7 -18z m166 -9 c-3 -7 -5 -2 -5 12 0 14 2
19 5 13 2 -7 2 -19 0 -25z m543 21 c0 -6 -8 -18 -17 -27 -16 -16 -16 -16 -10
1 4 10 7 23 7 28 0 5 5 9 10 9 6 0 10 -5 10 -11z m-637 -14 c4 -8 2 -17 -3
-20 -6 -4 -10 3 -10 14 0 25 6 27 13 6z m518 -41 l-9 -39 -1 41 c-1 22 2 44 6
48 12 12 14 -8 4 -50z m-63 21 c-3 -3 -9 2 -12 12 -6 14 -5 15 5 6 7 -7 10
-15 7 -18z m-1040 -10 c-3 -3 -9 2 -12 12 -6 14 -5 15 5 6 7 -7 10 -15 7 -18z
m829 -7 c-3 -8 -6 -5 -6 6 -1 11 2 17 5 13 3 -3 4 -12 1 -19z m133 13 c0 -6
-4 -13 -10 -16 -5 -3 -10 1 -10 9 0 9 5 16 10 16 6 0 10 -4 10 -9z m281 -27
c-5 -16 -10 -21 -10 -12 -1 18 10 51 15 45 2 -1 -1 -16 -5 -33z m-479 -9 c-6
-34 -12 -32 -12 6 0 16 4 28 9 25 4 -3 6 -17 3 -31z m308 10 c0 -8 -4 -17 -10
-20 -6 -4 -10 5 -10 20 0 15 4 24 10 20 6 -3 10 -12 10 -20z m-1670 -17 c0 -6
-7 -5 -15 2 -8 7 -15 17 -15 22 0 6 7 5 15 -2 8 -7 15 -17 15 -22z m1194 17
c-4 -8 -8 -15 -10 -15 -2 0 -4 7 -4 15 0 8 4 15 10 15 5 0 7 -7 4 -15z m611
-34 c-3 -21 -13 -42 -21 -45 -8 -3 -14 -1 -14 4 0 6 4 10 9 10 5 0 7 10 3 22
-3 14 -2 19 6 14 8 -5 12 2 12 20 0 15 3 25 6 21 3 -3 3 -24 -1 -46z m-1450
13 c9 -15 12 -23 6 -20 -11 7 -35 46 -28 46 3 0 12 -12 22 -26z m705 16 c0 -5
-4 -10 -10 -10 -5 0 -10 5 -10 10 0 6 5 10 10 10 6 0 10 -4 10 -10z m230 -12
c0 -18 -2 -20 -9 -8 -6 8 -7 18 -5 22 9 14 14 9 14 -14z m590 -9 c0 -11 -4
-18 -10 -14 -5 3 -7 12 -3 20 7 21 13 19 13 -6z m-503 -26 c-3 -10 -5 -4 -5
12 0 17 2 24 5 18 2 -7 2 -21 0 -30z m50 0 c-3 -10 -5 -4 -5 12 0 17 2 24 5
18 2 -7 2 -21 0 -30z m-217 12 c0 -8 -2 -15 -4 -15 -2 0 -6 7 -10 15 -3 8 -1
15 4 15 6 0 10 -7 10 -15z m702 -7 c-7 -7 -12 -8 -12 -2 0 6 3 14 7 17 3 4 9
5 12 2 2 -3 -1 -11 -7 -17z m-1877 4 c-3 -3 3 -11 13 -19 15 -13 15 -13 -5 -3
-28 13 -37 27 -18 27 8 0 13 -3 10 -5z m1662 -14 c-3 -8 -6 -5 -6 6 -1 11 2
17 5 13 3 -3 4 -12 1 -19z m-1536 -15 c13 -16 12 -17 -3 -4 -10 7 -18 15 -18
17 0 8 8 3 21 -13z m1086 -5 c-3 -8 -6 -5 -6 6 -1 11 2 17 5 13 3 -3 4 -12 1
-19z m623 16 c0 -24 -33 -113 -41 -109 -5 4 -9 1 -9 -6 0 -7 -2 -10 -5 -7 -10
9 7 38 18 31 6 -4 8 0 4 10 -7 19 11 87 23 87 6 0 10 -3 10 -6z m-1555 -14 c3
-5 1 -10 -4 -10 -6 0 -11 5 -11 10 0 6 2 10 4 10 3 0 8 -4 11 -10z m310 1 c3
-6 -4 -9 -15 -8 -11 1 -20 5 -20 9 0 11 28 10 35 -1z m495 -7 c0 -8 -4 -12
-10 -9 -5 3 -10 10 -10 16 0 5 5 9 10 9 6 0 10 -7 10 -16z m219 -58 c-5 -6 -9
7 -8 35 l1 44 8 -35 c5 -20 5 -39 -1 -44z m-1414 54 c3 -5 1 -10 -4 -10 -6 0
-11 5 -11 10 0 6 2 10 4 10 3 0 8 -4 11 -10z m1080 0 c3 -5 1 -10 -4 -10 -6 0
-11 5 -11 10 0 6 2 10 4 10 3 0 8 -4 11 -10z m75 0 c0 -5 -4 -10 -10 -10 -5 0
-10 5 -10 10 0 6 5 10 10 10 6 0 10 -4 10 -10z m304 -22 c4 -19 2 -36 -5 -42
-9 -8 -10 -8 -5 1 3 6 2 14 -4 18 -12 8 -13 55 -1 55 5 0 11 -14 15 -32z m286
11 c0 -11 -4 -17 -10 -14 -5 3 -10 13 -10 21 0 8 5 14 10 14 6 0 10 -9 10 -21z
m17 -46 c-2 -16 -4 -5 -4 22 0 28 2 40 4 28 2 -13 2 -35 0 -50z m1103 57 c0
-5 -4 -10 -10 -10 -5 0 -10 5 -10 10 0 6 5 10 10 10 6 0 10 -4 10 -10z m-1562
-18 c2 -7 -2 -10 -12 -6 -9 3 -16 11 -16 16 0 13 23 5 28 -10z m35 -7 c4 -8 2
-17 -3 -20 -6 -4 -10 3 -10 14 0 25 6 27 13 6z m520 -19 c-3 -4 -9 -2 -14 5
-13 22 -11 31 5 17 8 -7 12 -17 9 -22z m-1881 16 c2 -4 22 -23 45 -42 24 -18
41 -35 38 -38 -2 -2 -23 12 -46 32 -24 20 -46 36 -51 36 -4 0 -8 5 -8 10 0 12
17 13 22 2z m705 2 c-3 -3 -12 -4 -19 -1 -8 3 -5 6 6 6 11 1 17 -2 13 -5z
m828 -4 c3 -5 1 -10 -4 -10 -6 0 -11 5 -11 10 0 6 2 10 4 10 3 0 8 -4 11 -10z
m152 -52 c-2 -13 -4 -3 -4 22 0 25 2 35 4 23 2 -13 2 -33 0 -45z m294 25 c-12
-20 -14 -14 -5 12 4 9 9 14 11 11 3 -2 0 -13 -6 -23z m176 5 c-3 -8 -6 -5 -6
6 -1 11 2 17 5 13 3 -3 4 -12 1 -19z m720 16 c-3 -3 -12 -4 -19 -1 -8 3 -5 6
6 6 11 1 17 -2 13 -5z m-1058 -53 c-1 -34 -5 -48 -14 -45 -9 4 -10 16 -2 49 6
25 12 45 14 45 1 0 2 -22 2 -49z m-448 12 c-8 -15 -10 -15 -11 -2 0 17 10 32
18 25 2 -3 -1 -13 -7 -23z m640 -4 c-5 -13 -10 -19 -10 -12 -1 15 10 45 15 40
3 -2 0 -15 -5 -28z m589 16 c0 -2 -7 -5 -15 -9 -9 -3 -15 0 -15 9 0 9 6 12 15
9 8 -4 15 -7 15 -9z m-1180 -16 c0 -6 -4 -7 -10 -4 -5 3 -10 11 -10 16 0 6 5
7 10 4 6 -3 10 -11 10 -16z m447 -36 c1 -47 1 -47 -9 -14 -8 29 -6 61 5 61 1
0 3 -21 4 -47z m-416 0 c-12 -20 -14 -14 -5 12 4 9 9 14 11 11 3 -2 0 -13 -6
-23z m54 17 c3 -5 -1 -10 -10 -10 -9 0 -13 5 -10 10 3 6 8 10 10 10 2 0 7 -4
10 -10z m22 -22 c-3 -7 -5 -2 -5 12 0 14 2 19 5 13 2 -7 2 -19 0 -25z m230 7
c0 -8 -4 -12 -9 -9 -4 3 -8 9 -8 15 0 5 4 9 8 9 5 0 9 -7 9 -15z m416 0 c-3
-9 -8 -14 -10 -11 -3 3 -2 9 2 15 9 16 15 13 8 -4z m-1573 -16 c0 -6 -4 -7
-10 -4 -5 3 -10 1 -10 -5 0 -6 -4 -8 -10 -5 -6 4 -5 11 3 19 13 15 27 12 27
-5z m1050 -1 c0 -16 -3 -19 -11 -11 -6 6 -8 16 -5 22 11 17 16 13 16 -11z m27
0 c-3 -8 -6 -5 -6 6 -1 11 2 17 5 13 3 -3 4 -12 1 -19z m293 18 c0 -3 -4 -8
-10 -11 -5 -3 -10 -1 -10 4 0 6 5 11 10 11 6 0 10 -2 10 -4z m23 -16 c-3 -11
-7 -20 -9 -20 -2 0 -4 9 -4 20 0 11 4 20 9 20 5 0 7 -9 4 -20z m625 -9 c3 -8
-1 -12 -9 -9 -7 2 -15 10 -17 17 -3 8 1 12 9 9 7 -2 15 -10 17 -17z m-698 0
c0 -5 -9 -19 -20 -32 -17 -21 -19 -21 -13 -4 10 33 33 57 33 36z m-1993 -13
c23 -38 4 -65 -25 -36 -10 10 -15 10 -22 -2 -13 -22 -19 -9 -8 20 7 18 11 21
17 11 5 -8 14 -10 21 -6 9 6 9 9 -1 16 -10 6 -10 9 -2 9 6 0 15 -6 20 -12z
m722 3 c12 -8 12 -12 -2 -25 -22 -22 -27 -20 -27 9 0 27 6 30 29 16z m111 4
c0 -15 -32 -65 -41 -65 -20 0 -49 21 -49 35 0 10 10 15 29 15 17 0 33 5 36 10
7 11 25 14 25 5z m240 -28 c0 -5 -4 -5 -10 -2 -5 3 -10 14 -10 23 0 15 2 15
10 2 5 -8 10 -19 10 -23z m-916 -16 c-3 -3 -15 6 -27 18 l-22 24 27 -19 c14
-10 24 -21 22 -23z m1710 24 c-7 -16 -24 -21 -24 -6 0 8 7 13 27 20 1 1 0 -6
-3 -14z m59 -48 c-3 -21 -10 -37 -14 -37 -13 0 -11 38 2 46 6 3 8 18 5 33 -5
19 -4 22 3 10 6 -9 8 -32 4 -52z m88 32 c-5 -13 -10 -19 -10 -12 -1 15 10 45
15 40 3 -2 0 -15 -5 -28z m879 18 c0 -14 -19 -37 -31 -37 -4 0 -2 11 4 25 13
27 27 33 27 12z m79 3 c14 0 17 -6 13 -25 -2 -14 -8 -25 -13 -25 -15 0 -24 5
-22 12 1 3 -4 12 -12 18 -20 16 -19 34 1 26 9 -3 24 -6 33 -6z m-1389 -10 c0
-5 -4 -10 -10 -10 -5 0 -10 5 -10 10 0 6 5 10 10 10 6 0 10 -4 10 -10z m-990
-10 c0 -5 -4 -10 -9 -10 -6 0 -13 5 -16 10 -3 6 1 10 9 10 9 0 16 -4 16 -10z
m720 6 c0 -3 -4 -8 -10 -11 -5 -3 -10 -1 -10 4 0 6 5 11 10 11 6 0 10 -2 10
-4z m221 -32 c-5 -16 -10 -21 -10 -12 -1 18 10 51 15 45 2 -1 -1 -16 -5 -33z
m-1406 -3 c-6 -5 -25 10 -25 20 0 5 6 4 14 -3 8 -7 12 -15 11 -17z m2800 20
c3 -5 1 -12 -5 -16 -5 -3 -10 1 -10 9 0 18 6 21 15 7z m565 0 c0 -5 -7 -12
-16 -15 -14 -5 -15 -4 -4 9 14 17 20 19 20 6z m-1910 -10 c0 -6 -4 -13 -10
-16 -5 -3 -10 1 -10 9 0 9 5 16 10 16 6 0 10 -4 10 -9z m884 0 c4 -5 -3 -7
-14 -4 -23 6 -26 13 -6 13 8 0 17 -4 20 -9z m-1032 -23 c-7 -7 -12 -8 -12 -2
0 6 3 14 7 17 3 4 9 5 12 2 2 -3 -1 -11 -7 -17z m808 12 c0 -5 -4 -10 -10 -10
-5 0 -10 5 -10 10 0 6 5 10 10 10 6 0 10 -4 10 -10z m1045 0 c-3 -5 -12 -10
-18 -10 -7 0 -6 4 3 10 19 12 23 12 15 0z m-1805 -10 c0 -5 -5 -10 -11 -10 -5
0 -7 5 -4 10 3 6 8 10 11 10 2 0 4 -4 4 -10z m560 -11 c0 -5 -4 -9 -10 -9 -5
0 -10 7 -10 16 0 8 5 12 10 9 6 -3 10 -10 10 -16z m-1110 1 c0 -5 -4 -10 -10
-10 -5 0 -10 5 -10 10 0 6 5 10 10 10 6 0 10 -4 10 -10z m360 0 c0 -5 -2 -10
-4 -10 -3 0 -8 5 -11 10 -3 6 -1 10 4 10 6 0 11 -4 11 -10z m671 -13 c-10 -9
-11 -8 -5 6 3 10 9 15 12 12 3 -3 0 -11 -7 -18z m439 13 c0 -5 -7 -10 -16 -10
-8 0 -12 5 -9 10 3 6 10 10 16 10 5 0 9 -4 9 -10z m-584 -25 c0 -14 -4 -25 -8
-25 -10 0 -10 13 -2 34 9 23 12 20 10 -9z m1654 15 c0 -5 -5 -10 -11 -10 -5 0
-7 5 -4 10 3 6 8 10 11 10 2 0 4 -4 4 -10z m-2168 -22 c-7 -7 -12 -8 -12 -2 0
14 12 26 19 19 2 -3 -1 -11 -7 -17z m135 0 c-3 -8 -6 -5 -6 6 -1 11 2 17 5 13
3 -3 4 -12 1 -19z m426 10 c-4 -7 -6 -21 -5 -30 4 -20 -14 -25 -21 -5 -5 15
10 47 24 47 6 0 7 -6 2 -12z m-1968 -8 c3 -5 1 -10 -4 -10 -6 0 -11 5 -11 10
0 6 2 10 4 10 3 0 8 -4 11 -10z m1586 -17 c-12 -20 -14 -14 -5 12 4 9 9 14 11
11 3 -2 0 -13 -6 -23z m1949 12 c-7 -8 -17 -15 -23 -15 -6 0 -2 7 9 15 25 19
30 19 14 0z m-1296 -3 c3 -5 -1 -9 -9 -9 -8 0 -12 4 -9 9 3 4 7 8 9 8 2 0 6
-4 9 -8z m-2139 -12 c3 -5 2 -10 -4 -10 -5 0 -13 5 -16 10 -3 6 -2 10 4 10 5
0 13 -4 16 -10z m-95 -20 c0 -5 -4 -10 -10 -10 -5 0 -10 5 -10 10 0 6 5 10 10
10 6 0 10 -4 10 -10z m1413 -10 c3 -11 1 -18 -4 -14 -5 3 -9 12 -9 20 0 20 7
17 13 -6z m2052 10 c-3 -5 -14 -10 -23 -10 -15 0 -15 2 -2 10 20 13 33 13 25
0z m-1866 -33 c0 -21 -1 -21 -9 -2 -12 28 -12 37 0 30 6 -3 10 -16 9 -28z
m308 11 c-3 -8 -6 -5 -6 6 -1 11 2 17 5 13 3 -3 4 -12 1 -19z m616 9 c3 -8 -1
-14 -9 -14 -8 0 -14 6 -14 14 0 7 4 13 9 13 5 0 11 -6 14 -13z m996 -6 c-13
-11 -26 -17 -29 -14 -6 6 30 33 43 33 5 0 -1 -9 -14 -19z m-1989 -19 c0 -15
-2 -15 -10 -2 -13 20 -13 33 0 25 6 -3 10 -14 10 -23z m-1180 8 c8 -5 11 -12
8 -16 -4 -3 -14 1 -23 10 -18 17 -9 21 15 6z m3055 0 c-3 -5 -12 -10 -18 -10
-7 0 -6 4 3 10 19 12 23 12 15 0z m-2155 -15 c0 -8 -7 -15 -15 -15 -26 0 -18
20 13 29 1 1 2 -6 2 -14z m2230 7 c0 -4 -32 -23 -71 -40 -75 -35 -106 -39 -42
-6 21 10 49 27 62 37 25 18 51 23 51 9z m-1837 -17 c-3 -9 -8 -14 -10 -11 -3
3 -2 9 2 15 9 16 15 13 8 -4z m345 -21 c-3 -14 -5 -12 -10 9 -3 19 -2 25 4 19
6 -6 8 -18 6 -28z m29 14 c-3 -8 -6 -5 -6 6 -1 11 2 17 5 13 3 -3 4 -12 1 -19z
m-300 -10 c-3 -8 -6 -5 -6 6 -1 11 2 17 5 13 3 -3 4 -12 1 -19z m209 -15 c-11
-11 -17 4 -9 23 7 18 8 18 11 1 2 -10 1 -21 -2 -24z m563 20 c-7 -10 -15 -20
-16 -22 -2 -2 -3 5 -3 17 0 14 6 22 16 22 14 0 15 -3 3 -17z m586 -3 c3 -5 2
-10 -4 -10 -5 0 -13 5 -16 10 -3 6 -2 10 4 10 5 0 13 -4 16 -10z m-2958 -6
c-3 -3 -12 -4 -19 -1 -8 3 -5 6 6 6 11 1 17 -2 13 -5z m2113 2 c0 -3 -4 -8
-10 -11 -5 -3 -10 -1 -10 4 0 6 5 11 10 11 6 0 10 -2 10 -4z m164 -17 c-6 -11
-24 -2 -24 11 0 5 7 7 15 4 8 -4 12 -10 9 -15z m-544 7 c0 -3 -4 -8 -10 -11
-5 -3 -10 -1 -10 4 0 6 5 11 10 11 6 0 10 -2 10 -4z m657 -26 c-3 -21 -17 -40
-17 -22 0 13 11 42 16 42 2 0 3 -9 1 -20z m-1187 5 c0 -2 -5 -16 -12 -30 -11
-25 -28 -34 -28 -15 0 6 5 10 10 10 6 0 10 9 10 20 0 11 5 20 10 20 6 0 10 -2
10 -5z m660 -5 c0 -5 -5 -10 -11 -10 -5 0 -7 5 -4 10 3 6 8 10 11 10 2 0 4 -4
4 -10z m492 -12 c-7 -7 -12 -8 -12 -2 0 6 3 14 7 17 3 4 9 5 12 2 2 -3 -1 -11
-7 -17z m948 12 c0 -5 -5 -10 -11 -10 -5 0 -7 5 -4 10 3 6 8 10 11 10 2 0 4
-4 4 -10z m-3404 -31 c3 -6 -5 -3 -20 6 -14 10 -26 19 -26 22 0 7 39 -17 46
-28z m1114 21 c0 -5 -4 -10 -9 -10 -6 0 -13 5 -16 10 -3 6 1 10 9 10 9 0 16
-4 16 -10z m645 0 c-3 -5 -16 -10 -28 -10 -18 0 -19 2 -7 10 20 13 43 13 35 0z
m1862 -16 c-3 -3 -12 -4 -19 -1 -8 3 -5 6 6 6 11 1 17 -2 13 -5z m-2616 -21
c13 -16 12 -17 -3 -4 -10 7 -18 15 -18 17 0 8 8 3 21 -13z m639 7 c0 -5 -2
-10 -4 -10 -3 0 -8 5 -11 10 -3 6 -1 10 4 10 6 0 11 -4 11 -10z m110 -10 c0
-5 -9 -10 -21 -10 -11 0 -17 5 -14 10 3 6 13 10 21 10 8 0 14 -4 14 -10z
m1390 6 c0 -3 -4 -8 -10 -11 -5 -3 -10 -1 -10 4 0 6 5 11 10 11 6 0 10 -2 10
-4z m-1933 -28 c-3 -8 -6 -5 -6 6 -1 11 2 17 5 13 3 -3 4 -12 1 -19z m187 13
c6 -10 -20 -48 -28 -41 -7 8 5 50 15 50 4 0 10 -4 13 -9z m1806 -1 c-8 -5 -19
-10 -25 -10 -5 0 -3 5 5 10 8 5 20 10 25 10 6 0 3 -5 -5 -10z m-3210 -4 c0 -2
-9 -6 -20 -9 -11 -3 -18 -1 -14 4 5 9 34 13 34 5z m110 -16 c0 -5 -2 -10 -4
-10 -3 0 -8 5 -11 10 -3 6 -1 10 4 10 6 0 11 -4 11 -10z m380 0 c0 -5 -2 -10
-4 -10 -3 0 -8 5 -11 10 -3 6 -1 10 4 10 6 0 11 -4 11 -10z m78 -8 c2 -7 -2
-10 -12 -6 -9 3 -16 11 -16 16 0 13 23 5 28 -10z m2986 -1 c-12 -11 -127 -52
-132 -47 -2 3 24 14 57 27 34 12 64 26 67 31 3 5 9 7 12 3 3 -3 1 -9 -4 -14z
m-1480 -23 c-9 -14 -23 2 -17 18 4 12 8 13 14 3 4 -7 5 -17 3 -21z m936 15 c0
-8 -31 -36 -35 -31 -10 10 8 46 21 41 8 -3 14 -7 14 -10z m100 -2 c0 -21 -61
-48 -80 -36 -19 12 9 44 43 48 17 2 33 5 35 5 1 1 2 -7 2 -17z m-1487 -6 c-3
-9 -8 -14 -10 -11 -3 3 -2 9 2 15 9 16 15 13 8 -4z m-562 -12 c13 -16 12 -17
-3 -4 -10 7 -18 15 -18 17 0 8 8 3 21 -13z m789 -33 c0 -5 -4 -10 -10 -10 -5
0 -10 5 -10 10 0 6 5 10 10 10 6 0 10 -4 10 -10z m-1560 -16 c0 -8 -5 -12 -10
-9 -6 4 -8 11 -5 16 9 14 15 11 15 -7z m1227 -6 c-3 -8 -6 -5 -6 6 -1 11 2 17
5 13 3 -3 4 -12 1 -19z m763 12 c0 -5 -4 -10 -10 -10 -5 0 -10 5 -10 10 0 6 5
10 10 10 6 0 10 -4 10 -10z m-573 -22 c-3 -8 -6 -5 -6 6 -1 11 2 17 5 13 3 -3
4 -12 1 -19z m303 12 c0 -5 -4 -10 -10 -10 -5 0 -10 5 -10 10 0 6 5 10 10 10
6 0 10 -4 10 -10z m-1940 -4 c0 -2 -7 -7 -16 -10 -8 -3 -12 -2 -9 4 6 10 25
14 25 6z m3420 -16 c-19 -11 -42 -19 -50 -19 -8 0 3 9 25 20 52 24 70 24 25
-1z m-2760 0 c0 -5 -2 -10 -4 -10 -3 0 -8 5 -11 10 -3 6 -1 10 4 10 6 0 11 -4
11 -10z m1370 0 c0 -5 -4 -10 -9 -10 -6 0 -13 5 -16 10 -3 6 1 10 9 10 9 0 16
-4 16 -10z m-860 -4 c0 -3 -4 -8 -10 -11 -5 -3 -10 -1 -10 4 0 6 5 11 10 11 6
0 10 -2 10 -4z m2327 -2 c-3 -3 -12 -4 -19 -1 -8 3 -5 6 6 6 11 1 17 -2 13 -5z
m-3427 -8 c0 -11 -19 -15 -25 -6 -3 5 1 10 9 10 9 0 16 -2 16 -4z m645 -24
c-3 -3 -11 0 -18 7 -9 10 -8 11 6 5 10 -3 15 -9 12 -12z m666 -16 c-10 -25
-31 -36 -31 -17 0 20 13 41 21 35 5 -3 9 0 9 7 0 7 2 10 5 7 3 -3 1 -17 -4
-32z m313 4 c-14 -22 -21 -27 -31 -18 -18 15 -17 42 2 35 8 -4 17 -2 20 3 4 6
11 10 16 10 6 0 2 -13 -7 -30z m1656 20 c0 -5 -12 -10 -27 -9 -25 0 -26 1 -8
9 27 12 35 12 35 0z m-3424 -36 c-7 -38 -12 -39 -24 -5 -10 28 -9 31 9 31 15
0 18 -5 15 -26z m1354 19 c0 -5 -9 -21 -20 -38 -15 -22 -19 -25 -17 -10 6 31
18 55 28 55 5 0 9 -3 9 -7z m1990 -5 c-14 -7 -42 -19 -62 -29 -21 -9 -40 -14
-43 -9 -3 4 3 10 13 14 9 3 33 12 52 20 42 16 76 20 40 4z m-2712 -17 c3 -8
-1 -12 -9 -9 -7 2 -15 10 -17 17 -3 8 1 12 9 9 7 -2 15 -10 17 -17z m788 -47
c-4 -9 -9 -15 -11 -12 -3 3 -3 13 1 22 4 9 9 15 11 12 3 -3 3 -13 -1 -22z
m2234 20 c0 -10 -28 -34 -41 -34 -8 0 -5 8 7 19 19 20 34 26 34 15z m-1684
-41 c-10 -10 -19 5 -10 18 6 11 8 11 12 0 2 -7 1 -15 -2 -18z m954 17 c0 -5
-2 -10 -4 -10 -3 0 -8 5 -11 10 -3 6 -1 10 4 10 6 0 11 -4 11 -10z m263 3 c-7
-2 -19 -2 -25 0 -7 3 -2 5 12 5 14 0 19 -2 13 -5z m-1353 -12 c0 -6 -4 -13
-10 -16 -5 -3 -10 1 -10 9 0 9 5 16 10 16 6 0 10 -4 10 -9z m1590 5 c0 -2 -7
-7 -16 -10 -8 -3 -12 -2 -9 4 6 10 25 14 25 6z m160 -6 c-8 -5 -15 -19 -15
-31 0 -12 -6 -24 -14 -27 -10 -3 -12 0 -8 11 4 11 -1 17 -16 20 -21 3 -21 4
-2 11 11 4 27 11 35 16 20 12 39 12 20 0z m-2373 -22 c-3 -8 -6 -5 -6 6 -1 11
2 17 5 13 3 -3 4 -12 1 -19z m2158 13 c-6 -11 -64 -25 -72 -18 -3 3 10 10 28
16 45 12 51 13 44 2z m315 -10 c13 -3 -27 -21 -45 -20 -11 0 -14 3 -7 6 6 2
10 8 8 12 -4 6 17 7 44 2z m-3725 -11 c-4 -6 8 -10 27 -11 l33 -1 -30 -7 c-16
-4 -33 -6 -37 -4 -12 6 -9 33 3 33 5 0 7 -4 4 -10z m160 -10 c3 -6 -1 -7 -9
-4 -18 7 -21 14 -7 14 6 0 13 -4 16 -10z m1275 0 c0 -5 -2 -10 -4 -10 -3 0 -8
5 -11 10 -3 6 -1 10 4 10 6 0 11 -4 11 -10z m1876 -2 c-10 -6 -22 -6 -26 -2
-5 5 3 10 18 11 22 1 24 0 8 -9z m144 -8 c-41 -11 -76 -17 -79 -15 -5 6 13 12
64 24 76 17 90 9 15 -9z m-201 -11 c-24 -15 -45 -11 -24 5 11 8 24 12 28 9 5
-3 3 -9 -4 -14z m-3139 1 c8 -5 11 -10 5 -10 -5 0 -17 5 -25 10 -8 5 -10 10
-5 10 6 0 17 -5 25 -10z m1015 -20 c12 -19 -12 -10 -31 11 -19 22 -19 22 3 10
12 -6 25 -16 28 -21z m205 20 c0 -5 -4 -10 -10 -10 -5 0 -10 5 -10 10 0 6 5
10 10 10 6 0 10 -4 10 -10z m660 6 c0 -3 -4 -8 -10 -11 -5 -3 -10 -1 -10 4 0
6 5 11 10 11 6 0 10 -2 10 -4z m-586 -21 c-6 -16 -24 -21 -24 -7 0 11 11 22
21 22 5 0 6 -7 3 -15z m1891 5 c-27 -12 -43 -12 -25 0 8 5 22 9 30 9 10 0 8
-3 -5 -9z m-1770 -10 c3 -5 1 -10 -4 -10 -6 0 -11 5 -11 10 0 6 2 10 4 10 3 0
8 -4 11 -10z m-1386 -19 c10 -7 7 -9 -12 -8 -14 1 -23 5 -20 10 6 9 15 9 32
-2z m1352 -24 c-8 -8 -11 -7 -11 4 0 20 13 34 18 19 3 -7 -1 -17 -7 -23z
m1769 29 c0 -2 -9 -6 -20 -9 -11 -3 -18 -1 -14 4 5 9 34 13 34 5z m-2150 -16
c0 -5 -2 -10 -4 -10 -3 0 -8 5 -11 10 -3 6 -1 10 4 10 6 0 11 -4 11 -10z
m1789 -13 c-2 -1 -15 -11 -29 -22 l-25 -20 19 23 c11 12 24 22 29 22 6 0 8 -1
6 -3z m210 -1 c-2 -2 -20 -6 -39 -10 -25 -4 -31 -3 -20 4 14 9 69 15 59 6z
m-2399 -26 c0 -5 -2 -10 -4 -10 -3 0 -8 5 -11 10 -3 6 -1 10 4 10 6 0 11 -4
11 -10z m730 6 c0 -3 -4 -8 -10 -11 -5 -3 -10 -1 -10 4 0 6 5 11 10 11 6 0 10
-2 10 -4z m2040 0 c0 -3 -4 -8 -10 -11 -5 -3 -10 -1 -10 4 0 6 5 11 10 11 6 0
10 -2 10 -4z m-1352 -46 c-14 -22 -24 -19 -15 5 4 8 11 15 17 15 6 0 6 -7 -2
-20z m769 14 c-3 -3 -12 -4 -19 -1 -8 3 -5 6 6 6 11 1 17 -2 13 -5z m636 -11
c-7 -2 -21 -2 -30 0 -10 3 -4 5 12 5 17 0 24 -2 18 -5z m-2483 -17 c0 -3 -4
-8 -10 -11 -5 -3 -10 -1 -10 4 0 6 5 11 10 11 6 0 10 -2 10 -4z m431 -37 c-5
-13 -10 -19 -10 -12 -1 15 10 45 15 40 3 -2 0 -15 -5 -28z m-336 11 c3 -5 1
-10 -4 -10 -6 0 -11 5 -11 10 0 6 2 10 4 10 3 0 8 -4 11 -10z m1995 -4 c0 -3
-4 -8 -10 -11 -5 -3 -10 -1 -10 4 0 6 5 11 10 11 6 0 10 -2 10 -4z m330 -6 c0
-11 -15 -13 -73 -10 -26 1 -39 -3 -43 -15 -5 -13 -9 -14 -15 -4 -12 20 -4 25
48 28 26 1 49 4 52 7 8 8 31 4 31 -6z m-880 -19 c0 -6 -9 -9 -20 -8 -11 1 -20
5 -20 9 0 4 9 8 20 8 11 0 20 -4 20 -9z m-1365 -20 c-3 -6 -11 -8 -17 -5 -6 4
-5 9 3 15 16 10 23 4 14 -10z m2040 9 c-3 -5 -14 -10 -23 -10 -15 0 -15 2 -2
10 20 13 33 13 25 0z m-1975 -4 c0 -3 -4 -8 -10 -11 -5 -3 -10 -1 -10 4 0 6 5
11 10 11 6 0 10 -2 10 -4z m370 -36 c0 -5 -4 -10 -10 -10 -5 0 -10 5 -10 10 0
6 5 10 10 10 6 0 10 -4 10 -10z m-370 -30 c0 -5 -2 -10 -4 -10 -3 0 -8 5 -11
10 -3 6 -1 10 4 10 6 0 11 -4 11 -10z m287 -42 c-3 -8 -6 -5 -6 6 -1 11 2 17
5 13 3 -3 4 -12 1 -19z m160 -15 c-3 -10 -5 -4 -5 12 0 17 2 24 5 18 2 -7 2
-21 0 -30z m99 4 c14 5 20 -18 7 -30 -9 -10 -33 13 -32 32 0 9 3 11 5 4 3 -7
12 -9 20 -6z m-291 -7 c3 -5 1 -10 -4 -10 -6 0 -11 5 -11 10 0 6 2 10 4 10 3
0 8 -4 11 -10z m255 -10 c0 -5 -4 -10 -10 -10 -5 0 -10 5 -10 10 0 6 5 10 10
10 6 0 10 -4 10 -10z m405 -10 c3 -5 -8 -16 -25 -25 -32 -17 -40 -6 -14 19 18
18 30 20 39 6z m-758 -6 c-3 -3 -12 -4 -19 -1 -8 3 -5 6 6 6 11 1 17 -2 13 -5z
m693 -9 c-7 -9 -15 -13 -19 -10 -3 3 1 10 9 15 21 14 24 12 10 -5z m-155 -46
c-5 -16 -4 -19 5 -14 9 5 11 4 6 -3 -11 -18 -23 -14 -29 8 -4 16 2 24 21 29 2
1 0 -9 -3 -20z m25 -63 c0 -3 -4 -8 -10 -11 -5 -3 -10 -1 -10 4 0 6 5 11 10
11 6 0 10 -2 10 -4z m-314 -41 c-1 -14 -5 -25 -11 -25 -9 0 -11 21 -6 53 3 20
18 -5 17 -28z m224 28 c0 -5 -5 -15 -10 -23 -8 -12 -10 -11 -10 8 0 12 5 22
10 22 6 0 10 -3 10 -7z m-2 -55 c6 -8 6 -22 1 -35 -10 -28 -19 -30 -12 -4 3
10 0 22 -6 25 -13 9 -15 26 -2 26 5 0 13 -6 19 -12z m-221 -200 c-2 -13 -4 -5
-4 17 -1 22 1 32 4 23 2 -10 2 -28 0 -40z m82 -107 c-15 -5 -22 6 -14 19 6 9
10 9 16 -1 5 -8 4 -15 -2 -18z"/>
<path d="M2010 5710 c0 -5 5 -10 10 -10 6 0 10 5 10 10 0 6 -4 10 -10 10 -5 0
-10 -4 -10 -10z"/>
<path d="M4065 5620 c-3 -5 -2 -10 4 -10 5 0 13 5 16 10 3 6 2 10 -4 10 -5 0
-13 -4 -16 -10z"/>
<path d="M1470 5220 c0 -5 5 -10 10 -10 6 0 10 5 10 10 0 6 -4 10 -10 10 -5 0
-10 -4 -10 -10z"/>
<path d="M1268 4963 c7 -3 16 -2 19 1 4 3 -2 6 -13 5 -11 0 -14 -3 -6 -6z"/>
<path d="M1290 4894 c8 -8 23 -20 34 -26 20 -11 20 -10 6 8 -18 23 -32 34 -44
34 -5 0 -3 -7 4 -16z"/>
<path d="M1277 4809 c7 -7 15 -10 18 -7 3 3 -2 9 -12 12 -14 6 -15 5 -6 -5z"/>
<path d="M1250 4704 c19 -21 36 -41 38 -43 1 -2 2 3 2 11 0 9 -17 28 -37 43
l-38 28 35 -39z"/>
<path d="M1165 4620 c-3 -5 -1 -10 4 -10 6 0 11 5 11 10 0 6 -2 10 -4 10 -3 0
-8 -4 -11 -10z"/>
<path d="M4780 4599 c0 -5 5 -7 10 -4 6 3 10 8 10 11 0 2 -4 4 -10 4 -5 0 -10
-5 -10 -11z"/>
<path d="M4798 4238 c-16 -5 -28 -14 -28 -19 0 -5 12 -3 28 4 15 8 34 17 42
20 13 5 13 5 0 5 -8 0 -27 -4 -42 -10z"/>
<path d="M4715 4206 c-10 -7 -14 -15 -9 -19 5 -3 17 1 27 8 10 7 14 16 9 19
-5 3 -17 -1 -27 -8z"/>
<path d="M4805 4206 c-17 -7 -25 -15 -18 -19 6 -4 23 -1 38 7 35 18 19 28 -20
12z"/>
<path d="M1031 4044 c0 -11 3 -14 6 -6 3 7 2 16 -1 19 -3 4 -6 -2 -5 -13z"/>
<path d="M4778 3813 c-10 -2 -18 -9 -18 -14 0 -6 8 -5 20 1 11 6 20 13 20 15
0 3 -1 4 -2 4 -2 -1 -11 -3 -20 -6z"/>
<path d="M2540 3552 c0 -13 24 -39 43 -45 24 -9 21 5 -6 31 -24 23 -37 28 -37
14z"/>
<path d="M2802 2615 c0 -25 4 -45 9 -45 12 0 11 77 -1 85 -5 3 -9 -13 -8 -40z"/>
<path d="M2830 2605 c0 -8 5 -15 10 -15 6 0 10 7 10 15 0 8 -4 15 -10 15 -5 0
-10 -7 -10 -15z"/>
<path d="M2807 2543 c-4 -3 -7 -29 -6 -57 1 -49 1 -50 9 -16 5 19 7 38 4 41
-2 4 3 10 12 13 8 3 12 10 9 16 -7 12 -19 13 -28 3z"/>
<path d="M2836 2484 c-4 -14 -5 -28 -3 -31 3 -2 8 8 11 23 4 14 5 28 3 31 -3
2 -8 -8 -11 -23z"/>
<path d="M2810 2316 c0 -8 -3 -21 -6 -30 -3 -9 -1 -16 5 -16 6 0 11 11 11 24
0 13 6 27 13 29 7 3 5 6 -5 6 -10 1 -18 -5 -18 -13z"/>
<path d="M2791 2186 c0 -35 3 -56 8 -50 4 5 5 32 1 59 l-7 50 -2 -59z"/>
<path d="M2793 2040 c0 -25 2 -35 4 -22 2 12 2 32 0 45 -2 12 -4 2 -4 -23z"/>
<path d="M2803 1775 c0 -27 2 -38 4 -22 2 15 2 37 0 50 -2 12 -4 0 -4 -28z"/>
<path d="M2801 1653 c-1 -39 3 -74 8 -77 5 -3 7 24 4 62 -6 94 -11 100 -12 15z"/>
<path d="M2832 1370 c0 -14 2 -19 5 -12 2 6 2 18 0 25 -3 6 -5 1 -5 -13z"/>
<path d="M2841 1294 c0 -11 3 -14 6 -6 3 7 2 16 -1 19 -3 4 -6 -2 -5 -13z"/>
<path d="M2852 1220 c0 -14 2 -19 5 -12 2 6 2 18 0 25 -3 6 -5 1 -5 -13z"/>
<path d="M2861 1104 c0 -11 3 -14 6 -6 3 7 2 16 -1 19 -3 4 -6 -2 -5 -13z"/>
<path d="M2883 975 c0 -22 2 -30 4 -17 2 12 2 30 0 40 -3 9 -5 -1 -4 -23z"/>
<path d="M2891 884 c0 -11 3 -14 6 -6 3 7 2 16 -1 19 -3 4 -6 -2 -5 -13z"/>
<path d="M2902 820 c0 -14 2 -19 5 -12 2 6 2 18 0 25 -3 6 -5 1 -5 -13z"/>
</g>
</svg>
